<svg width="24" height="24" viewBox="0 0 24 24" fill="none" xmlns="http://www.w3.org/2000/svg">
<path d="M8 6.66675H13.3333C14.0406 6.66675 14.7189 6.9477 15.219 7.4478C15.719 7.94789 16 8.62617 16 9.33341C16 10.0407 15.719 10.7189 15.219 11.219C14.7189 11.7191 14.0406 12.0001 13.3333 12.0001H8V6.66675Z" stroke="white" stroke-width="1.5" stroke-linecap="round" stroke-linejoin="round"/>
<path d="M8 12H14C14.7072 12 15.3855 12.281 15.8856 12.781C16.3857 13.2811 16.6667 13.9594 16.6667 14.6667C16.6667 15.3739 16.3857 16.0522 15.8856 16.5523C15.3855 17.0524 14.7072 17.3333 14 17.3333H8V12Z" stroke="white" stroke-width="1.5" stroke-linecap="round" stroke-linejoin="round"/>
</svg>
